<?xml version="1.0" standalone="no"?>
<!DOCTYPE svg PUBLIC "-//W3C//DTD SVG 20010904//EN"
 "http://www.w3.org/TR/2001/REC-SVG-20010904/DTD/svg10.dtd">
<svg version="1.0" xmlns="http://www.w3.org/2000/svg"
 width="512.000000pt" height="512.000000pt" viewBox="0 0 512.000000 512.000000"
 preserveAspectRatio="xMidYMid meet">
<metadata>
Created by potrace 1.11, written by Peter Selinger 2001-2013
</metadata>
<g transform="translate(0.000000,512.000000) scale(0.100000,-0.100000)"
fill="#000000" stroke="none">
<path d="M2542 2803 c-155 -175 -522 -590 -816 -923 -294 -332 -538 -606 -543
-607 -5 -2 -272 276 -594 618 l-584 622 -3 -1248 c-1 -687 -1 -1250 1 -1252 3
-2 2068 -4 4800 -3 l317 0 0 850 c0 480 -4 850 -9 850 -5 0 -147 -47 -317
-104 l-309 -104 -65 61 c-36 34 -353 345 -705 692 -780 768 -879 865 -887 865
-3 0 -132 -143 -286 -317z"/>
</g>
</svg>
